<svg width="8" height="8" viewBox="0 0 8 8" fill="none" xmlns="http://www.w3.org/2000/svg">
<g clip-path="url(#clip0)">
<path d="M3.16667 6.33333C1.42067 6.33333 0 4.91267 0 3.16667C0 1.42067 1.42067 0 3.16667 0C4.91267 0 6.33333 1.42067 6.33333 3.16667C6.33333 4.91267 4.91267 6.33333 3.16667 6.33333ZM3.16667 0.5C1.69633 0.5 0.5 1.69633 0.5 3.16667C0.5 4.637 1.69633 5.83333 3.16667 5.83333C4.637 5.83333 5.83333 4.637 5.83333 3.16667C5.83333 1.69633 4.637 0.5 3.16667 0.5Z" fill="black" fill-opacity="0.6"/>
<path d="M7.74991 8.00001C7.68591 8.00001 7.62191 7.97568 7.57325 7.92668L5.05323 5.40667C4.95556 5.309 4.95556 5.15067 5.05323 5.053C5.1509 4.95533 5.30923 4.95533 5.4069 5.053L7.92692 7.57301C8.02458 7.67068 8.02458 7.82901 7.92692 7.92668C7.87792 7.97568 7.81392 8.00001 7.74991 8.00001Z" fill="black" fill-opacity="0.6"/>
<path d="M2.91694 4.50001C2.89794 4.50001 2.87927 4.49801 2.86027 4.49367C2.72594 4.46267 2.64194 4.32834 2.67294 4.19401L3.17294 2.02734C3.20427 1.89234 3.34027 1.81001 3.47261 1.83967C3.60694 1.87067 3.69094 2.00501 3.65994 2.13934L3.15994 4.30601C3.13327 4.42201 3.03061 4.50001 2.91694 4.50001Z" fill="black" fill-opacity="0.6"/>
<path d="M4.2499 4.16666C4.18156 4.16666 4.11356 4.13899 4.0639 4.08399C3.97156 3.98133 3.9799 3.82333 4.08256 3.73066L4.70956 3.16666L4.08256 2.60266C3.9799 2.51033 3.97156 2.35233 4.0639 2.24933C4.15656 2.14666 4.31423 2.13833 4.41723 2.23066L5.25056 2.98066C5.30323 3.02833 5.33323 3.09599 5.33323 3.16666C5.33323 3.23733 5.30323 3.30499 5.25056 3.35266L4.41723 4.10266C4.36923 4.14566 4.30956 4.16666 4.2499 4.16666Z" fill="black" fill-opacity="0.6"/>
<path d="M2.08333 4.16666C2.02367 4.16666 1.964 4.14566 1.916 4.10266L1.08267 3.35266C1.03 3.30499 1 3.23733 1 3.16666C1 3.09599 1.03 3.02833 1.08267 2.98066L1.916 2.23067C2.01867 2.138 2.17633 2.14633 2.26933 2.24933C2.36167 2.352 2.35333 2.51 2.25067 2.60266L1.62367 3.16666L2.25067 3.73066C2.35333 3.82299 2.36167 3.98099 2.26933 4.08399C2.21967 4.13899 2.15167 4.16666 2.08333 4.16666Z" fill="black" fill-opacity="0.6"/>
</g>
<defs>
<clipPath id="clip0">
<rect width="8" height="8" fill="white"/>
</clipPath>
</defs>
</svg>
