<svg width="10" height="10" viewBox="0 0 10 10" fill="none" xmlns="http://www.w3.org/2000/svg">
<path d="M4.99997 6.23111C5.68004 6.23111 6.23134 5.6798 6.23134 4.99973C6.23134 4.31966 5.68004 3.76836 4.99997 3.76836C4.3199 3.76836 3.7686 4.31966 3.7686 4.99973C3.7686 5.6798 4.3199 6.23111 4.99997 6.23111Z" fill="black" fill-opacity="0.6"/>
<path d="M9.93801 4.84374C9.84783 4.74832 7.70246 2.49927 4.99938 2.49927C2.29659 2.49927 0.151521 4.74832 0.0615727 4.84374C-0.0204632 4.93137 -0.0204632 5.06802 0.0615727 5.15523C0.151878 5.25065 2.29701 7.50072 4.99938 7.50072C7.70246 7.50072 9.84848 5.25065 9.93801 5.15523C10.0206 5.06802 10.0206 4.93066 9.93801 4.84374ZM4.99997 6.90333C3.95064 6.90333 3.09696 6.04948 3.09696 4.99931C3.09696 3.94998 3.95064 3.09565 4.99997 3.09565C6.04925 3.09565 6.90411 3.94968 6.90411 4.99931C6.90387 6.04888 6.04925 6.90333 4.99997 6.90333ZM3.49096 3.20225C2.97668 3.63504 2.64211 4.27568 2.64211 4.99931C2.64211 5.72264 2.97668 6.36334 3.49096 6.7969C2.06797 6.33925 0.950524 5.37629 0.551112 4.99931C0.950583 4.62274 2.06827 3.65967 3.49096 3.20225ZM6.5097 6.79619C7.02362 6.3631 7.35861 5.72228 7.35861 4.99931C7.35861 4.27634 7.02392 3.63599 6.50928 3.20291C7.93221 3.66056 9.04882 4.62233 9.44847 4.99931C9.04876 5.37594 7.93215 6.33788 6.5097 6.79619Z" fill="black" fill-opacity="0.6"/>
</svg>
