<svg width="10" height="10" viewBox="0 0 10 10" fill="none" xmlns="http://www.w3.org/2000/svg">
<path d="M8.93302 1.91283H9.242C9.34978 1.91283 9.43719 1.82542 9.43719 1.71764C9.43719 1.60986 9.34978 1.52246 9.242 1.52246H8.5003C8.39252 1.52246 8.30512 1.60986 8.30512 1.71764V2.45934C8.30512 2.56712 8.39252 2.65453 8.5003 2.65453C8.60808 2.65453 8.69549 2.56712 8.69549 2.45934V2.24458C9.28771 3.03744 9.60963 3.99945 9.60963 5C9.60963 7.54177 7.54177 9.60963 5 9.60963C2.45823 9.60963 0.390369 7.54177 0.390369 5C0.390369 2.45823 2.45823 0.390369 5 0.390369C5.18798 0.390369 5.37717 0.401787 5.56237 0.424292C5.66923 0.437213 5.76668 0.361111 5.77968 0.254091C5.7927 0.147091 5.7165 0.049772 5.60948 0.0367727C5.40872 0.0123747 5.20367 0 5 0C3.66445 0 2.40883 0.520088 1.46447 1.46447C0.520088 2.40883 0 3.66445 0 5C0 6.33555 0.520088 7.59117 1.46447 8.53553C2.40883 9.47991 3.66445 10 5 10C6.33555 10 7.59117 9.47991 8.53553 8.53553C9.47991 7.59117 10 6.33555 10 5C10 3.87299 9.62349 2.79104 8.93302 1.91283Z" fill="black" fill-opacity="0.6"/>
<path d="M2.11721 2.94753C2.02611 2.88988 1.90555 2.91701 1.84787 3.00804C1.40229 3.7118 1.20503 4.55816 1.29246 5.39122C1.38117 6.23664 1.76168 7.03389 2.3639 7.63614C3.09067 8.3629 4.04534 8.7263 5.00002 8.7263C5.95471 8.7263 6.90935 8.36292 7.63614 7.63614C9.0897 6.18258 9.0897 3.81745 7.63614 2.36391C7.03484 1.76263 6.2389 1.38225 5.39488 1.29286C4.56336 1.20473 3.71791 1.40045 3.01445 1.84385C2.92324 1.90133 2.89593 2.02185 2.9534 2.11304C3.01088 2.20425 3.1314 2.23156 3.22259 2.1741C4.54864 1.33832 6.25 1.52985 7.36009 2.63994C8.66145 3.9413 8.66145 6.05873 7.36009 7.36009C6.05876 8.66146 3.94128 8.66146 2.63995 7.36009C1.5452 6.26534 1.3508 4.52287 2.17771 3.21689C2.23535 3.1258 2.20828 3.00521 2.11721 2.94753Z" fill="black" fill-opacity="0.6"/>
<path d="M7.53741 5.19834H7.77811C7.88589 5.19834 7.97329 5.11094 7.97329 5.00316C7.97329 4.89538 7.88589 4.80798 7.77811 4.80798H7.53741C7.42963 4.80798 7.34222 4.89538 7.34222 5.00316C7.34222 5.11094 7.42961 5.19834 7.53741 5.19834Z" fill="black" fill-opacity="0.6"/>
<path d="M2.0267 4.99684C2.0267 5.10462 2.11411 5.19202 2.22189 5.19202H2.46259C2.57037 5.19202 2.65777 5.10462 2.65777 4.99684C2.65777 4.88905 2.57037 4.80165 2.46259 4.80165H2.22189C2.11411 4.80165 2.0267 4.88904 2.0267 4.99684Z" fill="black" fill-opacity="0.6"/>
<path d="M5.19835 2.46258V2.22188C5.19835 2.1141 5.11095 2.0267 5.00317 2.0267C4.89539 2.0267 4.80798 2.1141 4.80798 2.22188V2.46258C4.80798 2.57036 4.89539 2.65777 5.00317 2.65777C5.11095 2.65777 5.19835 2.57036 5.19835 2.46258Z" fill="black" fill-opacity="0.6"/>
<path d="M4.80167 7.53742V7.77812C4.80167 7.8859 4.88907 7.9733 4.99685 7.9733C5.10463 7.9733 5.19204 7.8859 5.19204 7.77812V7.53742C5.19204 7.42964 5.10463 7.34223 4.99685 7.34223C4.88907 7.34223 4.80167 7.42962 4.80167 7.53742Z" fill="black" fill-opacity="0.6"/>
<path d="M4.02166 3.74561C3.94542 3.66941 3.82187 3.66941 3.74561 3.74561C3.66939 3.82183 3.66939 3.94542 3.74561 4.02166L4.40711 4.68316C4.35642 4.77763 4.32759 4.88551 4.32759 5C4.32759 5.37077 4.62923 5.67241 5 5.67241C5.37077 5.67241 5.67241 5.37077 5.67241 5C5.67241 4.88551 5.64356 4.77763 5.59289 4.68316L6.92762 3.34843C7.00384 3.27221 7.00384 3.14862 6.92762 3.07238C6.85138 2.99618 6.72783 2.99618 6.65157 3.07238L5.31684 4.40711C5.22237 4.35642 5.11449 4.32759 5 4.32759C4.8855 4.32759 4.77763 4.35644 4.68316 4.40711L4.02166 3.74561ZM5.28204 5C5.28204 5.15552 5.15552 5.28204 5 5.28204C4.84448 5.28204 4.71796 5.15552 4.71796 5C4.71796 4.84448 4.84448 4.71796 5 4.71796C5.15552 4.71796 5.28204 4.84448 5.28204 5Z" fill="black" fill-opacity="0.6"/>
<path d="M2.63982 2.63983C2.67632 2.60352 2.69718 2.55317 2.69718 2.50183C2.69718 2.4505 2.67632 2.40034 2.63982 2.36384C2.60351 2.32755 2.55333 2.30665 2.50182 2.30665C2.45049 2.30665 2.40013 2.32753 2.36383 2.36384C2.32754 2.40014 2.30664 2.4505 2.30664 2.50183C2.30664 2.55336 2.32753 2.60352 2.36383 2.63983C2.40013 2.67611 2.45049 2.69702 2.50182 2.69702C2.55333 2.69702 2.60351 2.67611 2.63982 2.63983Z" fill="black" fill-opacity="0.6"/>
<path d="M6.35204 0.583171C6.40359 0.583171 6.45395 0.562462 6.49024 0.525982C6.52654 0.489678 6.54744 0.439496 6.54744 0.387987C6.54744 0.336653 6.52656 0.286296 6.49024 0.249991C6.45395 0.213707 6.40359 0.192802 6.35204 0.192802C6.30071 0.192802 6.25035 0.213687 6.21407 0.249991C6.17776 0.286296 6.15686 0.336653 6.15686 0.387987C6.15686 0.439516 6.17775 0.489678 6.21407 0.525982C6.25035 0.562462 6.30071 0.583171 6.35204 0.583171Z" fill="black" fill-opacity="0.6"/>
</svg>
