<svg width="24" height="24" viewBox="0 0 24 24" fill="none" xmlns="http://www.w3.org/2000/svg">
<g clip-path="url(#clip0)">
<path d="M20.8157 3.18497H14.1723C13.5342 3.18497 12.9343 3.43345 12.4832 3.88467L3.08764 13.2803C2.63642 13.7314 2.38794 14.3313 2.38794 14.9694C2.38794 15.6074 2.63642 16.2073 3.08764 16.6584L9.73096 23.3016C10.1966 23.7672 10.8083 24 11.42 24C12.0317 24 12.6434 23.7672 13.109 23.3015L22.5047 13.9058C22.9559 13.4546 23.2044 12.8548 23.2044 12.2168V5.57363C23.2044 4.25653 22.1328 3.18497 20.8157 3.18497ZM17.6307 11.1473C16.3136 11.1473 15.242 10.0758 15.242 8.75864C15.242 7.4415 16.3136 6.36994 17.6307 6.36994C18.9478 6.36994 20.0194 7.4415 20.0194 8.75864C20.0194 10.0758 18.9478 11.1473 17.6307 11.1473Z" fill="#3D9FFF"/>
<path d="M19.2234 0H12.58C11.9419 0 11.3421 0.248484 10.8909 0.699703L1.49536 10.0953C1.04414 10.5465 0.795654 11.1463 0.795654 11.7844C0.795654 12.2835 0.948279 12.7588 1.23047 13.1583C1.41792 12.7922 1.66261 12.4533 1.96186 12.1541L11.3573 2.75855C12.1093 2.00662 13.109 1.59248 14.1725 1.59248H20.8158C21.0474 1.59248 21.2742 1.61348 21.4951 1.65169C21.1837 0.694219 20.2833 0 19.2234 0Z" fill="#3D9FFF"/>
</g>
<defs>
<clipPath id="clip0">
<rect width="24" height="24" fill="white"/>
</clipPath>
</defs>
</svg>
